<svg width="128" height="128" viewBox="0 0 128 128" xmlns="http://www.w3.org/2000/svg">
  <rect width="128" height="128" rx="28" fill="#3e86ea"/>
  <g fill="#ffffff">
    <rect x="46" y="18" width="7" height="16" rx="3"/>
    <rect x="60.5" y="18" width="7" height="16" rx="3"/>
    <rect x="75" y="18" width="7" height="16" rx="3"/>
    <rect x="46" y="94" width="7" height="16" rx="3"/>
    <rect x="60.5" y="94" width="7" height="16" rx="3"/>
    <rect x="75" y="94" width="7" height="16" rx="3"/>
    <rect x="18" y="46" width="16" height="7" rx="3"/>
    <rect x="18" y="60.5" width="16" height="7" rx="3"/>
    <rect x="18" y="75" width="16" height="7" rx="3"/>
    <rect x="94" y="46" width="16" height="7" rx="3"/>
    <rect x="94" y="60.5" width="16" height="7" rx="3"/>
    <rect x="94" y="75" width="16" height="7" rx="3"/>
  </g>
  <rect x="36" y="36" width="56" height="56" rx="12" fill="#ffffff"/>
  <rect x="44" y="44" width="40" height="40" rx="7" fill="#3e86ea"/>
  <rect x="57" y="57" width="14" height="14" rx="3" fill="#ffffff"/>
</svg>
